<mxfile host="Electron" agent="Mozilla/5.0 (Windows NT 10.0; Win64; x64) AppleWebKit/537.36 (KHTML, like Gecko) draw.io/24.7.5 Chrome/126.0.6478.183 Electron/31.3.0 Safari/537.36" version="24.7.5" pages="3">
  <diagram name="Multi Con" id="zejFGEgLozXS0IWjCjf2">
    <mxGraphModel dx="1960" dy="480" grid="1" gridSize="10" guides="1" tooltips="1" connect="1" arrows="1" fold="1" page="1" pageScale="1" pageWidth="850" pageHeight="1100" math="0" shadow="0">
      <root>
        <mxCell id="0" />
        <mxCell id="1" parent="0" />
        <mxCell id="LIdM6p1KuMzoME9im7JW-16" value="" style="rounded=0;whiteSpace=wrap;html=1;fillColor=#dae8fc;strokeColor=#6c8ebf;" parent="1" vertex="1">
          <mxGeometry x="-640" y="200" width="400" height="210" as="geometry" />
        </mxCell>
        <mxCell id="LIdM6p1KuMzoME9im7JW-17" value="" style="rounded=0;whiteSpace=wrap;html=1;fillColor=#d5e8d4;strokeColor=#82b366;" parent="1" vertex="1">
          <mxGeometry x="-630" y="210" width="380" height="190" as="geometry" />
        </mxCell>
        <mxCell id="LIdM6p1KuMzoME9im7JW-18" value="&lt;font style=&quot;font-size: 20px;&quot;&gt;&lt;b&gt;Multi-container Pod&lt;/b&gt;&lt;/font&gt;" style="text;whiteSpace=wrap;html=1;" parent="1" vertex="1">
          <mxGeometry x="-550" y="160" width="240" height="40" as="geometry" />
        </mxCell>
        <mxCell id="LIdM6p1KuMzoME9im7JW-19" value="&lt;font style=&quot;font-size: 20px;&quot;&gt;&lt;b&gt;db &lt;/b&gt;Container&lt;/font&gt;" style="rounded=0;whiteSpace=wrap;html=1;" parent="1" vertex="1">
          <mxGeometry x="-620" y="270" width="155" height="70" as="geometry" />
        </mxCell>
        <mxCell id="LIdM6p1KuMzoME9im7JW-20" value="&lt;font style=&quot;font-size: 18px;&quot;&gt;Primary Container&lt;/font&gt;" style="text;html=1;align=center;verticalAlign=middle;whiteSpace=wrap;rounded=0;" parent="1" vertex="1">
          <mxGeometry x="-850" y="285" width="210" height="30" as="geometry" />
        </mxCell>
        <mxCell id="LIdM6p1KuMzoME9im7JW-21" value="" style="shape=curlyBracket;whiteSpace=wrap;html=1;rounded=1;flipH=1;labelPosition=right;verticalLabelPosition=middle;align=left;verticalAlign=middle;" parent="1" vertex="1">
          <mxGeometry x="-255" y="245" width="50" height="130" as="geometry" />
        </mxCell>
        <mxCell id="LIdM6p1KuMzoME9im7JW-22" value="&lt;font style=&quot;font-size: 20px;&quot;&gt;&lt;b&gt;logger&amp;nbsp;&lt;/b&gt;Container&lt;/font&gt;" style="rounded=0;whiteSpace=wrap;html=1;" parent="1" vertex="1">
          <mxGeometry x="-425" y="230" width="170" height="70" as="geometry" />
        </mxCell>
        <mxCell id="LIdM6p1KuMzoME9im7JW-23" value="&lt;font style=&quot;font-size: 20px;&quot;&gt;&lt;b&gt;backup&amp;nbsp;&lt;/b&gt;Container&lt;/font&gt;" style="rounded=0;whiteSpace=wrap;html=1;" parent="1" vertex="1">
          <mxGeometry x="-425" y="320" width="170" height="70" as="geometry" />
        </mxCell>
        <mxCell id="LIdM6p1KuMzoME9im7JW-24" value="&lt;font style=&quot;font-size: 20px;&quot;&gt;SideCar / Supporting Containers&lt;/font&gt;" style="text;html=1;align=center;verticalAlign=middle;whiteSpace=wrap;rounded=0;" parent="1" vertex="1">
          <mxGeometry x="-240" y="295" width="270" height="30" as="geometry" />
        </mxCell>
        <mxCell id="LIdM6p1KuMzoME9im7JW-25" value="" style="shape=curlyBracket;whiteSpace=wrap;html=1;rounded=1;labelPosition=left;verticalLabelPosition=middle;align=right;verticalAlign=middle;" parent="1" vertex="1">
          <mxGeometry x="-670" y="280" width="35" height="60" as="geometry" />
        </mxCell>
        <mxCell id="LIdM6p1KuMzoME9im7JW-26" value="&lt;font style=&quot;font-size: 24px;&quot;&gt;Shared Network&lt;/font&gt;" style="rounded=0;whiteSpace=wrap;html=1;fillColor=#dae8fc;strokeColor=#6c8ebf;" parent="1" vertex="1">
          <mxGeometry x="305" y="180" width="220" height="90" as="geometry" />
        </mxCell>
        <mxCell id="LIdM6p1KuMzoME9im7JW-27" value="&lt;font style=&quot;font-size: 24px;&quot;&gt;Shared Storage&lt;/font&gt;" style="rounded=0;whiteSpace=wrap;html=1;fillColor=#dae8fc;strokeColor=#6c8ebf;" parent="1" vertex="1">
          <mxGeometry x="305" y="280" width="220" height="90" as="geometry" />
        </mxCell>
        <mxCell id="LIdM6p1KuMzoME9im7JW-28" value="&lt;font style=&quot;font-size: 24px;&quot;&gt;Communicate inside through LOCALHOST:&amp;lt;port&amp;gt;&lt;/font&gt;" style="rounded=0;whiteSpace=wrap;html=1;fillColor=#dae8fc;strokeColor=#6c8ebf;" parent="1" vertex="1">
          <mxGeometry x="200" y="380" width="325" height="90" as="geometry" />
        </mxCell>
        <mxCell id="LIdM6p1KuMzoME9im7JW-29" value="&lt;font style=&quot;font-size: 24px;&quot;&gt;&lt;b&gt;10.0.0.2&lt;/b&gt;&lt;/font&gt;" style="text;html=1;align=center;verticalAlign=middle;resizable=0;points=[];autosize=1;strokeColor=none;fillColor=none;" parent="1" vertex="1">
          <mxGeometry x="-495" y="423" width="110" height="40" as="geometry" />
        </mxCell>
        <mxCell id="LIdM6p1KuMzoME9im7JW-30" value="&lt;font style=&quot;font-size: 20px;&quot;&gt;Not a Good Practice Until Needs Specifically&lt;/font&gt;" style="rounded=0;whiteSpace=wrap;html=1;fillColor=#f8cecc;strokeColor=#b85450;" parent="1" vertex="1">
          <mxGeometry x="-830" y="70" width="430" height="60" as="geometry" />
        </mxCell>
      </root>
    </mxGraphModel>
  </diagram>
  <diagram id="CVOeAdNa7vudCRdRNPi9" name="Probs">
    <mxGraphModel dx="1120" dy="542" grid="1" gridSize="10" guides="1" tooltips="1" connect="1" arrows="1" fold="1" page="1" pageScale="1" pageWidth="850" pageHeight="1100" math="0" shadow="0">
      <root>
        <mxCell id="0" />
        <mxCell id="1" parent="0" />
        <mxCell id="VotaC5idYOkawaDaWx7K-1" value="&lt;font style=&quot;font-size: 20px;&quot;&gt;Limited Scalability&lt;br&gt;&lt;/font&gt;" style="rounded=0;whiteSpace=wrap;html=1;fillColor=#dae8fc;strokeColor=#6c8ebf;" parent="1" vertex="1">
          <mxGeometry x="313" y="340" width="225" height="60" as="geometry" />
        </mxCell>
        <mxCell id="VotaC5idYOkawaDaWx7K-2" value="&lt;font style=&quot;font-size: 20px;&quot;&gt;Tight Coupling&lt;br&gt;&lt;/font&gt;" style="rounded=0;whiteSpace=wrap;html=1;fillColor=#dae8fc;strokeColor=#6c8ebf;" parent="1" vertex="1">
          <mxGeometry x="313" y="270" width="225" height="60" as="geometry" />
        </mxCell>
        <mxCell id="VotaC5idYOkawaDaWx7K-3" value="&lt;font style=&quot;&quot;&gt;&lt;font style=&quot;font-size: 20px;&quot;&gt;Resource Contention&lt;/font&gt;&lt;br&gt;&lt;/font&gt;" style="rounded=0;whiteSpace=wrap;html=1;fillColor=#dae8fc;strokeColor=#6c8ebf;" parent="1" vertex="1">
          <mxGeometry x="313" y="410" width="225" height="60" as="geometry" />
        </mxCell>
        <mxCell id="VotaC5idYOkawaDaWx7K-4" value="&lt;font style=&quot;font-size: 20px;&quot;&gt;Why We Usually Avoid Multiple Containers in a Pod&lt;/font&gt;" style="rounded=0;whiteSpace=wrap;html=1;fillColor=#ffe6cc;strokeColor=#d79b00;" parent="1" vertex="1">
          <mxGeometry x="110" y="180" width="700" height="60" as="geometry" />
        </mxCell>
      </root>
    </mxGraphModel>
  </diagram>
  <diagram id="geOn9jhpw06oXOxE33PG" name="When to Use">
    <mxGraphModel dx="880" dy="542" grid="1" gridSize="10" guides="1" tooltips="1" connect="1" arrows="1" fold="1" page="1" pageScale="1" pageWidth="850" pageHeight="1100" math="0" shadow="0">
      <root>
        <mxCell id="0" />
        <mxCell id="1" parent="0" />
        <mxCell id="tqZH01TaOKuNxogB17GV-1" value="&lt;font style=&quot;font-size: 20px;&quot;&gt;Do they need to be run together or can they run on different hosts?&lt;/font&gt;" style="rounded=0;whiteSpace=wrap;html=1;fillColor=#ffe6cc;strokeColor=#d79b00;" parent="1" vertex="1">
          <mxGeometry x="90" y="270" width="700" height="60" as="geometry" />
        </mxCell>
        <mxCell id="tqZH01TaOKuNxogB17GV-2" value="&lt;font style=&quot;font-size: 20px;&quot;&gt;Do they represent a single whole or are they independent components?&lt;/font&gt;" style="rounded=0;whiteSpace=wrap;html=1;fillColor=#ffe6cc;strokeColor=#d79b00;" parent="1" vertex="1">
          <mxGeometry x="90" y="340" width="700" height="60" as="geometry" />
        </mxCell>
        <mxCell id="tqZH01TaOKuNxogB17GV-3" value="&lt;font style=&quot;font-size: 20px;&quot;&gt;Must they be scaled together or individually?&lt;/font&gt;" style="rounded=0;whiteSpace=wrap;html=1;fillColor=#ffe6cc;strokeColor=#d79b00;" parent="1" vertex="1">
          <mxGeometry x="90" y="410" width="700" height="60" as="geometry" />
        </mxCell>
        <mxCell id="tqZH01TaOKuNxogB17GV-4" value="&lt;font style=&quot;font-size: 20px;&quot;&gt;Deciding When To Use Multiple Containers&lt;/font&gt;" style="rounded=0;whiteSpace=wrap;html=1;fillColor=#dae8fc;strokeColor=#6c8ebf;" parent="1" vertex="1">
          <mxGeometry x="190" y="150" width="500" height="60" as="geometry" />
        </mxCell>
      </root>
    </mxGraphModel>
  </diagram>
</mxfile>
